<svg xmlns="http://www.w3.org/2000/svg" preserveAspectRatio="xMidYMid" width="20" height="18" viewBox="0 0 20 18"><defs><style>.cls-1{fill:#b0b0b0;fill-rule:evenodd}</style></defs><path d="M18.826 17.999H1.174A1.174 1.174 0 0 1 0 16.828V2.498c0-.645.526-1.171 1.174-1.171h3.467v-.86a.469.469 0 0 1 .939 0v.86h2.321v-.86a.468.468 0 1 1 .939 0v.86h2.32v-.86a.468.468 0 0 1 .939 0v.86h2.32v-.86a.468.468 0 0 1 .939 0v.86h3.468c.647 0 1.174.526 1.174 1.171v14.33c0 .645-.527 1.171-1.174 1.171zm.235-15.501a.235.235 0 0 0-.235-.234h-3.468v.859a.468.468 0 1 1-.939 0v-.859h-2.32v.859a.468.468 0 1 1-.939 0v-.859H8.84v.859a.468.468 0 0 1-.939 0v-.859H5.58v.859a.469.469 0 1 1-.939 0v-.859H1.174a.235.235 0 0 0-.235.234v2.995H17.59a.468.468 0 1 1 0 .937H.939v10.398c0 .129.105.234.235.234h17.652c.13 0 .235-.105.235-.234V2.498zM16.138 15.23H3.861a.421.421 0 0 1-.422-.421V8.682c0-.231.189-.421.422-.421h12.277c.234 0 .423.19.423.421v6.127a.421.421 0 0 1-.423.421zm-9.63-6.126H4.284v2.221h2.224V9.104zm0 3.064H4.284v2.219h2.224v-2.219zm3.069-3.064H7.353v2.221h2.224V9.104zm0 3.064H7.353v2.219h2.224v-2.219zm3.07-3.064h-2.225v2.221h2.225V9.104zm0 3.064h-2.225v2.219h2.225v-2.219zm3.069-3.064h-2.224v2.221h2.224V9.104zm0 3.064h-2.224v2.219h2.224v-2.219z" class="cls-1"/></svg>