<svg xmlns="http://www.w3.org/2000/svg" preserveAspectRatio="xMidYMid" width="20" height="20" viewBox="0 0 20 20"><defs><style>.cls-1{fill:#b0b0b0;fill-rule:evenodd}</style></defs><path d="M10 19.999c-5.523 0-10-4.477-10-10s4.477-10 10-10 10 4.477 10 10-4.477 10-10 10zm0-18.948c-4.934 0-8.947 4.015-8.947 8.948 0 4.933 4.013 8.948 8.947 8.948 4.933 0 8.947-4.015 8.947-8.948 0-4.933-4.014-8.948-8.947-8.948zm7.353 9.556h-.693a.566.566 0 0 1-.559-.573c0-.316.25-.572.559-.572h.693c.31 0 .56.256.56.572 0 .317-.25.573-.56.573zm-.699-3.815l-.6.354a.557.557 0 0 1-.765-.209.58.58 0 0 1 .205-.782l.601-.355a.552.552 0 0 1 .764.21.579.579 0 0 1-.205.782zM13.98 17.005a.553.553 0 0 1-.765-.21l-.347-.613a.581.581 0 0 1 .205-.783.554.554 0 0 1 .765.21l.346.614a.58.58 0 0 1-.204.782zM13.838 4.46a.55.55 0 0 1-.765.209.58.58 0 0 1-.205-.782l.347-.614a.553.553 0 0 1 .765-.21.58.58 0 0 1 .204.783l-.346.614zm-.489 8.208a.552.552 0 0 1 0 .769.526.526 0 0 1-.376.16.526.526 0 0 1-.376-.16l-2.109-2.158c-.131.05-.271.077-.418.08l-.024.001H6.407c-.709 0-1.287-.591-1.287-1.317s.578-1.318 1.287-1.318h2.352V7.26c0-.725.577-1.316 1.287-1.316s1.287.591 1.287 1.316v2.783c0 .166-.031.327-.086.473l2.102 2.152zm-4.59-2.625v-.23H6.407a.228.228 0 0 0-.224.23c0 .126.101.23.224.23h2.372a1.365 1.365 0 0 1-.02-.23zm1.51-2.783c0-.126-.1-.228-.223-.228a.226.226 0 0 0-.224.228v2.783c0 .126.101.228.224.228a.226.226 0 0 0 .223-.228V7.26zm-.223-3.421a.566.566 0 0 1-.56-.572v-.71c0-.316.251-.572.56-.572.309 0 .56.256.56.572v.71a.566.566 0 0 1-.56.572zm-3.027.83a.553.553 0 0 1-.765-.209l-.347-.614a.581.581 0 0 1 .205-.783.554.554 0 0 1 .765.21l.346.614a.58.58 0 0 1-.204.782zm-2.421 9.245l-.601.355a.555.555 0 0 1-.764-.21.58.58 0 0 1 .205-.783l.6-.354a.552.552 0 0 1 .764.209.58.58 0 0 1-.204.783zm-.281-6.691a.547.547 0 0 1-.279-.077l-.601-.354a.58.58 0 0 1-.204-.782.551.551 0 0 1 .764-.21l.601.355a.58.58 0 0 1 .204.782.554.554 0 0 1-.485.286zm-.326 2.811c0 .317-.25.573-.56.573h-.693a.566.566 0 0 1-.559-.573c0-.316.25-.572.559-.572h.693c.31 0 .56.256.56.572zm2.263 5.575a.554.554 0 0 1 .765-.21.58.58 0 0 1 .204.783l-.346.613a.55.55 0 0 1-.765.21.58.58 0 0 1-.205-.782l.347-.614zm3.792.62c.309 0 .56.256.56.573v.709a.567.567 0 0 1-.56.573.567.567 0 0 1-.56-.573v-.709c0-.317.251-.573.56-.573zm6.008-3.307l.6.354a.58.58 0 0 1 .205.783.557.557 0 0 1-.485.287.547.547 0 0 1-.279-.077l-.601-.355a.581.581 0 0 1-.205-.783.554.554 0 0 1 .765-.209z" class="cls-1"/></svg>